<svg id="Layer_1" data-name="Layer 1" xmlns="http://www.w3.org/2000/svg" viewBox="0 0 1750 631.56"><defs><style>.cls-1,.cls-3{fill:#1d523b;}.cls-2{fill:#f7941d;}.cls-3{font-size:73px;font-family:Montserrat-ExtraBoldItalic, Montserrat;font-weight:800;font-style:italic;}.cls-4{letter-spacing:-0.02em;}.cls-5{letter-spacing:0em;}.cls-6{letter-spacing:-0.01em;}.cls-7{letter-spacing:-0.03em;}.cls-8{letter-spacing:-0.01em;}.cls-9{letter-spacing:-0.01em;}.cls-10{letter-spacing:-0.01em;}</style></defs><title>LOGO_NEW_C_up</title><path class="cls-1" d="M667.69,706.1a617.77,617.77,0,0,0-183.37,88.49c-60.6,42.88-100.16,87.4-127.78,121.3-4.45,5.46-8.59,10.65-12.46,15.51a783.21,783.21,0,0,0-52.54,74.51s0,0,0,0q-6.39,10.26-12.11,20.12h0c-23.13,39.77-38.62,74.28-49.93,99.79-.26.59-.52,1.17-.77,1.75A1006.56,1006.56,0,0,0,173,1290.21l-48-.94a991.86,991.86,0,0,1,60.87-187.5c19.52-44.44,56.51-127.11,130.84-216,31.91-38.14,83.76-99.1,171-153.16a648.71,648.71,0,0,1,168.82-73.73,7.2,7.2,0,0,1,8.95,5.46l7.21,33.21A7.25,7.25,0,0,1,667.69,706.1Z" transform="translate(-125 -658.65)"/><path class="cls-1" d="M423.65,1154.89h56.83c-23.2,50.8-68.67,85.32-121,85.32-61.21,0-113.06-47.28-130.8-112.6a188.94,188.94,0,0,1-6.54-49.58c0-88.4,59.89-160.28,134.37-162.14,1,0,2,0,3,0,53.06,0,99.09,35.53,122,87.55h-56c-16.64-20.51-40.06-33.28-66-33.28-27,0-51.25,13.82-68,35.79,0,0,0,0,0,0q-6.39,10.26-12.11,20.12h0a122.91,122.91,0,0,0-11.28,52c0,59.6,40.91,107.91,91.38,107.91C384.5,1185.94,407.16,1174.09,423.65,1154.89Z" transform="translate(-125 -658.65)"/><path class="cls-1" d="M496.85,1078a189.76,189.76,0,0,1-5.41,45.21H442.5a126.1,126.1,0,0,0,.85-88.18H492A189.77,189.77,0,0,1,496.85,1078Z" transform="translate(-125 -658.65)"/><path class="cls-1" d="M279.41,1026.06a108.88,108.88,0,0,1,12.11-20.12Q285.13,1016.2,279.41,1026.06Z" transform="translate(-125 -658.65)"/><path class="cls-1" d="M692.09,950.89V897H563.31v216.19h56.24v-75.76h65V985.3h-65V950.89Z" transform="translate(-125 -658.65)"/><path class="cls-1" d="M853.72,897v41.33c19.88,29.44,39.74,65.18,29.07,96.55-8.09,23.81-33.15,43.35-60.51,43-26.71-.3-51.26-19.47-59.16-43-10.11-30.15,8-64.54,27.88-94.93V897H734v132.56c0,53.19,36.75,89.1,88.34,89.1s88.33-35.91,88.33-89.1V897Z" transform="translate(-125 -658.65)"/><path class="cls-1" d="M1017.72,1061.53v-32.36h66.46V980.32h-66.46V948.49h74V897H962.22v216.19h131.92v-51.66Z" transform="translate(-125 -658.65)"/><path class="cls-1" d="M1197.05,1058.65V897h-56.49v216.19h128.5v-54.54Z" transform="translate(-125 -658.65)"/><path class="cls-2" d="M1424.78,1067.64a61,61,0,0,1-31.37,8.18q-29.48,0-47.55-19.76t-18.06-51q0-31.5,18.06-51.27t47.55-19.76a60.32,60.32,0,0,1,31.22,8.18A55.35,55.35,0,0,1,1446,965l34.4-21.31a99.13,99.13,0,0,0-87-51q-45.67,0-75.44,32.28t-29.78,80.14q0,47.56,29.78,80t75.44,32.43a98.64,98.64,0,0,0,87-51l-34.4-21.31A53.58,53.58,0,0,1,1424.78,1067.64Z" transform="translate(-125 -658.65)"/><path class="cls-2" d="M1620.64,897h-49.43l-70.83,216.18h43.08l12.14-38.91h83.12l12.86,38.91H1692Zm-52.05,137.43,27.75-88.33,29.2,88.33Z" transform="translate(-125 -658.65)"/><rect class="cls-2" x="438.13" y="477.33" width="1165" height="24"/><path class="cls-2" d="M1848.41,1023.59q19.08-19.9,19.07-52.6,0-32.31-17.77-53.16T1805.91,897h-79.78v263H1812q26.6,0,44.81-21.41T1875,1083.7Q1875,1043.5,1848.41,1023.59ZM1766,945.44h39.89q9.54,0,15.61,8.27t6.07,20.66q0,12.4-6.21,20.66t-15.47,8.27H1766Zm62.73,157.24q-6.66,8.82-16.77,8.83h-46v-62h46q10.13,0,16.77,8.83t6.65,22Q1835.4,1093.85,1828.75,1102.68Z" transform="translate(-125 -658.65)"/><text class="cls-3" transform="translate(481.43 570.55)">SER<tspan class="cls-4" x="150.31" y="0">V</tspan><tspan class="cls-5" x="205.13" y="0">ICE </tspan><tspan class="cls-6" x="354.04" y="0">F</tspan><tspan x="400.47" y="0">OR </tspan><tspan class="cls-7" x="537.49" y="0">Y</tspan><tspan x="585.89" y="0">OUR </tspan><tspan class="cls-8" x="780.29" y="0">C</tspan><tspan x="833.06" y="0">OM</tspan><tspan class="cls-9" x="964.46" y="0">F</tspan><tspan x="1010.89" y="0">O</tspan><tspan class="cls-10" x="1072.65" y="0">R</tspan><tspan x="1125.94" y="0">T</tspan></text></svg>